PathFileType	4	(X/Y/Z)	Patient4_TMGait_0pt3_01_right_28.trc.trc
DataRate	CameraRate	NumFrames	NumMarkers	Units	OrigDataRate	OrigDataStartFrame	OrigNumFrames
50.179211469534	50.179211469534	5	33	mm	50.179211469534	1	       141
Frame#	Time	Sacral			L.Shoulder			Chest			R.Shoulder			Neck			R.ASIS			L.ASIS			R.Thigh.Superior			R.Thigh.Lateral			R.Thigh.Inferior			R.Patella			L.Thigh.Superior			L.Thigh.Lateral			L.Thigh.Inferior			L.Patella			L.Shank.Superior			L.Shank.Lateral			L.Shank.Inferior			R.Shank.Superior			R.Shank.Lateral			R.Shank.Inferior			R.Heel			R.Midfoot.Superior			R.Midfoot.Lateral			R.Toe			L.Heel			L.Midfoot.Lateral			L.Midfoot.Superior			L.Toe			L.Elbow			L.Wrist			R.Elbow			R.Wrist			
		X1	Y1	Z1	X2	Y2	Z2	X3	Y3	Z3	X4	Y4	Z4	X5	Y5	Z5	X6	Y6	Z6	X7	Y7	Z7	X8	Y8	Z8	X9	Y9	Z9	X10	Y10	Z10	X11	Y11	Z11	X12	Y12	Z12	X13	Y13	Z13	X14	Y14	Z14	X15	Y15	Z15	X16	Y16	Z16	X17	Y17	Z17	X18	Y18	Z18	X19	Y19	Z19	X20	Y20	Z20	X21	Y21	Z21	X22	Y22	Z22	X23	Y23	Z23	X24	Y24	Z24	X25	Y25	Z25	X26	Y26	Z26	X27	Y27	Z27	X28	Y28	Z28	X29	Y29	Z29	X30	Y30	Z30	X31	Y31	Z31	X32	Y32	Z32	X33	Y33	Z33	

1	51.850000000000	706.475532503547	995.242817056879	409.760019856522	896.273373098764	1423.813877258777	229.321367161751	995.549462985057	1351.704712030073	391.549768836363	912.686693514439	1428.620389179287	563.476189727094	879.436718866628	1485.015314846150	387.762475397371	934.127384947269	933.631846435186	531.523069859721	926.774376656483	949.599267526588	257.807540249933	981.518839493045	732.934671968281	517.569341432517	906.822639170927	625.639215323748	588.730720104998	989.134184429688	564.381818515796	516.282743335026	979.295487711171	454.049615534823	545.472627308580	990.336667091751	747.350299028935	301.109488527286	916.899684079041	618.702237720808	248.402143510703	1007.807560413236	552.517927818671	318.401038512644	1013.564014746178	477.202072889584	328.713675132295	974.142738646301	403.050060535237	324.966110157281	871.451678637527	298.911169424624	278.064400069255	904.100400778217	185.099381256300	352.299671794459	893.239194675445	393.654871380016	553.854328475589	764.181312712652	373.981802859120	607.462084434705	742.478707440686	261.682416948230	568.207331685584	540.403278626373	220.698210104272	524.053227222843	693.210767709854	145.454138230069	592.316083867345	581.284064782582	161.435887206334	609.393966325166	738.692767509522	29.630249643790	635.306682614300	758.805213556788	39.665598767878	396.304075780229	832.190809380437	36.369932006961	315.484080463316	917.097192742193	95.751121496822	342.382431377652	1044.268679778671	40.031366474411	311.278441898953	907.053878803973	1079.439121498024	93.633702093509	999.083648859045	834.636684456432	94.383764872201	961.444468028156	1082.428226345168	684.765228850033	1115.686547683599	876.220337103690	732.740102312027	
2	51.869928571429	705.293795891015	991.741155466587	405.729863503290	898.303252878664	1421.710712799776	228.837912946776	993.912550683473	1349.413095102572	392.927224031725	907.080338340044	1425.164842295402	563.473225720416	878.412158363425	1482.661976656825	387.264160075853	931.697804968623	932.185160910095	530.737384144964	928.648879332919	947.643548052915	256.418809621120	984.672001541351	734.652362132077	516.551037830341	913.360013693338	625.538362614826	587.273698801233	997.904747565048	566.786400489037	515.123203990780	990.903769889004	455.729521938064	544.291943383075	991.448162268162	744.976262504943	300.438516296096	918.346768665397	616.158414490260	247.755698186907	1008.665695814162	550.123981988093	318.881593038014	1014.327699870539	474.763802743291	329.775895365765	973.820624427164	400.438151907637	325.776003861467	869.924518225783	297.721145939352	278.186267462421	899.943616789151	183.666440120109	352.799442078008	904.791712873892	394.408698526552	552.145976432198	774.881564528594	374.666656291199	604.149340905816	753.690777479353	262.288443454827	564.953533046584	551.425448710428	220.222516119940	519.186758253222	704.827176823738	146.630736145478	588.601242495674	592.449433248810	161.619642391082	604.984477020259	751.137963028554	31.226652360859	632.367893556063	752.719565828990	39.603816979494	396.204278960565	826.152794984703	36.314490197870	315.400274978047	911.096321433091	95.536378886865	342.600879139387	1038.235830022562	39.953057283541	311.245966858998	919.714566240499	1078.659858159323	92.169520838964	1021.510510720376	838.306209762976	94.896097386251	937.999252049854	1076.806695016468	682.035254121515	1075.880603064393	861.531956197952	728.508557948116	
3	51.889857142857	704.124688058584	988.626486422123	401.630527873396	900.456685235791	1419.954579068699	228.500558156360	992.259181697325	1347.476418883017	394.493027053374	901.309759841640	1422.060932424260	563.530637464673	877.366725255389	1480.627793952780	386.860106460631	929.168474801588	931.012560119554	530.030329163034	930.460238541555	945.946947897012	255.208545942443	987.703718970364	736.763922903256	515.506049932042	919.887467625245	625.830874111838	585.810921395277	1006.587885458861	569.631234822148	513.899157199191	1002.564765262702	457.930766872027	543.087870686022	992.323615650009	742.713063303600	299.846586685804	919.376542401130	613.838584476643	247.125267755119	1008.958860142649	547.831902838876	319.374750678498	1014.429970904882	472.469893228838	330.830878385916	972.901054846214	398.017190022187	326.552175791718	867.917161328047	296.612335046064	278.274164952548	895.468250970190	182.340766712632	353.261602878096	916.611113561196	395.484700834480	550.469923084981	785.923632488755	375.156305946284	600.878852294770	765.689805891928	262.594181537208	561.791193622439	563.416998609572	218.544407793480	514.428478080088	717.660567768972	147.372837264533	585.033439328307	604.801918198288	160.884261078578	600.747412072822	765.302547729621	32.693992684032	629.719680971019	746.443896246720	39.541371673569	396.100954752019	819.932349487329	36.256018301703	315.310887821397	904.907147933178	95.332370599142	342.793295485739	1032.021052649644	39.880024496171	311.215424877574	932.552151786494	1078.351476607974	90.863118806954	1044.572183461170	842.842194268444	95.728510193875	913.877948342606	1071.814442031167	679.093005870299	1034.772909272004	847.640847919402	723.861725890222	
4	51.909785714286	703.006358943310	986.191878581275	397.576376741812	902.738044541609	1418.768429987900	228.403739907739	990.644578604459	1346.118339677171	396.291939066064	895.505280518089	1419.576341815757	563.678746256262	876.338711950630	1479.129831501242	386.617735435480	926.568460594229	930.294224979101	529.472563434559	932.136423871409	944.696395065888	254.301131298173	990.429450702270	739.369215301027	514.472509024611	926.131498363055	626.678868821882	584.400199880201	1014.795108514650	573.001609305443	512.638260155934	1013.849623392663	460.818162594219	541.892479818154	992.793917266577	740.682379774933	299.399643547940	919.725273115626	611.932086834258	246.539440446511	1008.375164836434	545.768917837093	319.868248377186	1013.517148100337	470.470995895339	331.834309154232	971.104688585339	395.965895261038	327.246379767258	865.244452882087	295.663708913907	278.306439471128	890.652529802024	181.221001646413	353.651947985007	928.399598290117	396.996635771983	548.901736143477	797.146586905041	375.315357971414	597.836149259073	778.507167964312	262.460956528734	558.897996817970	576.572008970143	215.149757808084	510.072949040088	731.965986181959	147.482707103136	581.826634019966	618.649076844266	158.828925831465	596.959375301547	781.637374996909	33.989748260089	627.551706056921	740.087176830488	39.481585354959	395.995787772087	813.638174286698	36.196214627996	315.216370739733	898.635155998289	95.151764687433	342.941127812702	1025.733285867997	39.818111555932	311.188162394639	945.240396777802	1078.754842336810	89.835280855963	1067.813409177998	848.574294825011	97.027129266559	889.582618936683	1067.949290384429	675.934281357913	993.168443947509	835.451200820008	718.776545954389	
5	51.929714285714	701.969494134929	984.671096792201	393.665800102622	905.164959756190	1418.333127545324	228.632290418325	989.118017088055	1345.511813781753	398.366020453234	889.781840222757	1417.924523975416	563.944933158015	875.367748925787	1478.341535146121	386.598482273696	923.915667462107	930.185239541065	529.123135230942	933.617598918721	944.043793822482	253.797071053265	992.686695950719	742.539044088577	513.486489850265	931.837503536954	628.201326320198	583.093687462345	1022.183032796162	576.945814606616	511.373852833937	1024.376852838327	464.516276244848	540.733018150094	992.705388586533	738.980446057134	299.157016535593	919.166827757998	610.592838353475	246.022628193402	1006.645448793086	544.039543428666	320.356059141392	1011.286657417722	468.890656351506	332.750404502234	968.193161235807	394.431021908007	327.818121363083	861.742936419244	294.942100013262	278.265582706830	885.464427626906	180.388102436936	353.943501363425	939.899141477613	399.035600185740	547.506496100556	808.447272731658	375.031372081961	595.197777014817	792.201127957338	261.797992195492	556.437588731554	591.130757105532	209.650445026422	506.417669330553	748.008279263756	146.835314908157	579.165080872319	634.333465447135	155.156566272038	593.877861766454	800.561108437319	35.132465918855	625.979147064457	733.725080762138	39.428240851314	395.890165723570	807.344599975480	36.137252974114	315.117923549167	892.352681083827	95.005393535235	343.029995447563	1019.447078897822	39.772382964788	311.164899230674	957.539449040473	1080.068687077103	89.180811918542	1090.887644141766	855.815231963563	98.921697958819	865.522267767534	1065.624703068004	672.550609855438	951.731571508135	825.713055569143	713.256184667373	
